<?xml version="1.0" encoding="utf-8"?><!-- Uploaded to: SVG Repo, www.svgrepo.com, Generator: SVG Repo Mixer Tools -->
<svg version="1.1" id="designs" xmlns="http://www.w3.org/2000/svg" xmlns:xlink="http://www.w3.org/1999/xlink" 
	 width="800px" height="800px" viewBox="0 0 32 32" xml:space="preserve">
<style type="text/css">
	.sketchy_een{fill:#111918;}
</style>
<path class="sketchy_een" d="M23.495,7.763c0.003-0.023,0.006-0.046,0.009-0.069c0.007-0.054,0.015-0.108,0.022-0.162
	C23.517,7.609,23.507,7.686,23.495,7.763z M27.835,8.555c0.189,0.042,0.367,0.115,0.544,0.193c0.129,0.058,0.258,0.113,0.379,0.183
	c0.194,0.11,0.409,0.238,0.559,0.408c0.181,0.206,0.359,0.438,0.423,0.713c0.065,0.279,0.077,0.532,0.037,0.815
	c-0.04,0.277-0.161,0.546-0.283,0.796c-0.146,0.3-0.329,0.586-0.557,0.832c-0.302,0.329-0.657,0.613-1.038,0.846
	c-0.381,0.231-0.769,0.413-1.182,0.581c-0.341,0.137-0.688,0.258-1.036,0.377c0.137,0.321,0.244,0.643,0.216,1
	c-0.027,0.327-0.094,0.661-0.279,0.94c-0.165,0.252-0.359,0.459-0.615,0.623c-0.313,0.2-0.657,0.354-1,0.5
	c-0.425,0.183-0.853,0.356-1.29,0.507c-0.498,0.175-1.005,0.318-1.515,0.449c0.018,0.047,0.048,0.091,0.057,0.14
	c0.044,0.233,0.067,0.452,0.042,0.686c-0.015,0.138-0.038,0.273-0.069,0.409c-0.04,0.183-0.121,0.354-0.2,0.523
	c-0.09,0.198-0.223,0.394-0.375,0.554c-0.369,0.383-0.804,0.667-1.278,0.9c-0.539,0.262-1.092,0.499-1.649,0.723
	c0.037,0.079,0.069,0.16,0.086,0.247c0.063,0.319,0.094,0.634-0.008,0.95c-0.05,0.158-0.113,0.308-0.183,0.457
	c-0.098,0.211-0.248,0.396-0.394,0.577c-0.115,0.142-0.242,0.283-0.381,0.404c-0.311,0.273-0.7,0.527-1.103,0.646
	c-0.188,0.056-0.383,0.094-0.575,0.131c-0.21,0.042-0.419,0.081-0.63,0.111c-0.217,0.031-0.417,0.038-0.634,0.038
	c-0.375-0.002-0.748,0.023-1.123,0.05c-0.411,0.029-0.821,0.058-1.234,0.071c-0.383,0.012-0.761-0.021-1.144-0.05
	c-0.903-0.067-1.811-0.092-2.718-0.119c-0.119-0.004-0.232-0.03-0.336-0.074c-0.017,0.016-0.033,0.033-0.051,0.049
	c-0.29,0.265-0.581,0.532-0.859,0.811c-0.271,0.271-0.521,0.557-0.79,0.83c-0.258,0.261-0.521,0.519-0.779,0.78
	c-0.435,0.438-0.854,0.892-1.241,1.371c-0.013,0.017-0.025,0.034-0.037,0.051C3.416,29.831,3.185,30,2.87,30
	c-0.221,0-0.436-0.088-0.592-0.246c-0.156-0.156-0.246-0.371-0.246-0.592c0-0.242,0.102-0.407,0.246-0.592
	c0.252-0.323,0.54-0.63,0.819-0.932c0.373-0.402,0.767-0.78,1.157-1.167c0.398-0.398,0.769-0.819,1.169-1.215
	c0.356-0.356,0.73-0.69,1.094-1.037c-0.279-1.293-0.57-2.581-0.742-3.893c-0.077-0.588-0.165-1.178-0.213-1.77
	c-0.035-0.434-0.063-0.855-0.006-1.29c0.052-0.392,0.133-0.788,0.259-1.165c0.083-0.246,0.179-0.502,0.317-0.725
	c0.125-0.2,0.269-0.383,0.417-0.565c0.271-0.34,0.621-0.682,1.025-0.853c0.148-0.063,0.275-0.119,0.431-0.148
	c0.119-0.022,0.251-0.039,0.381-0.039c0.125,0,0.25,0.016,0.361,0.06c0.035,0.014,0.062,0.03,0.095,0.044
	c0.083-0.334,0.174-0.667,0.272-0.998c0.16-0.534,0.338-1.084,0.63-1.561c0.098-0.161,0.206-0.319,0.321-0.469
	c0.088-0.113,0.171-0.235,0.269-0.342c0.133-0.14,0.286-0.256,0.444-0.365c0.219-0.152,0.438-0.271,0.682-0.373
	C11.681,9.674,11.926,9.6,12.168,9.6c0.047,0,0.093,0.003,0.139,0.009c0.169,0.021,0.346,0.031,0.509,0.085
	c0.113,0.04,0.224,0.087,0.332,0.137c0.117-0.268,0.241-0.532,0.385-0.784c0.211-0.371,0.438-0.73,0.686-1.078
	c0.148-0.208,0.298-0.413,0.461-0.609c0.333-0.398,0.846-0.634,1.353-0.688c0.042-0.005,0.085-0.007,0.127-0.007
	c0.189,0,0.379,0.043,0.553,0.109c0.152,0.058,0.258,0.106,0.381,0.2c0.059,0.045,0.104,0.096,0.155,0.141
	c0.149-0.4,0.318-0.793,0.485-1.185c0.16-0.373,0.333-0.748,0.55-1.094c0.498-0.8,1.125-1.607,1.961-2.076
	c0.316-0.177,0.661-0.287,1.017-0.287c0.125,0,0.25,0.014,0.377,0.043c0.488,0.112,0.88,0.45,1.117,0.888
	c0.108,0.2,0.206,0.402,0.296,0.609c0.108,0.246,0.242,0.5,0.308,0.763c0.004,0.014,0.006,0.029,0.009,0.042
	c0.052-0.071,0.102-0.143,0.156-0.213c0.16-0.206,0.344-0.39,0.529-0.577c0.556-0.557,1.221-1.005,1.891-1.411
	c0.173-0.104,0.346-0.211,0.531-0.292c0.186-0.083,0.384-0.183,0.586-0.227C27.302,2.043,27.549,2,27.794,2
	c0.061,0,0.121,0.003,0.182,0.008c0.511,0.05,1.023,0.194,1.367,0.6c0.613,0.717,0.707,1.74,0.571,2.637
	c-0.04,0.269-0.09,0.532-0.192,0.786c-0.092,0.229-0.185,0.459-0.294,0.68C29.065,7.446,28.453,8.025,27.835,8.555z M18.252,9.27
	c0.111,0.574,0.175,1.161,0.219,1.739c0.031,0.415,0.067,0.832,0.083,1.247c0.002,0.043,0.003,0.085,0.004,0.128
	c0.288-0.265,0.583-0.526,0.859-0.804c0.612-0.615,1.2-1.251,1.787-1.89c0.008-0.137,0.041-0.272,0.12-0.392
	c0.046-0.068,0.088-0.136,0.125-0.207c0.09-0.264,0.143-0.542,0.202-0.814c0.062-0.285,0.113-0.573,0.157-0.863
	c0.058-0.523,0.084-1.038,0.04-1.563c-0.045-0.287-0.101-0.574-0.206-0.846c-0.12-0.275-0.246-0.55-0.407-0.802
	c-0.001,0-0.002,0-0.004,0c-0.022,0.006-0.044,0.013-0.066,0.02c-0.168,0.085-0.324,0.186-0.477,0.297
	c-0.285,0.245-0.54,0.515-0.777,0.807c-0.366,0.509-0.645,1.052-0.903,1.622c-0.131,0.314-0.258,0.629-0.362,0.953
	c-0.125,0.384-0.204,0.786-0.3,1.178C18.328,9.152,18.287,9.21,18.252,9.27z M16.185,8.351c0.002,0.002,0.003,0.004,0.005,0.006
	c0.022,0.017,0.045,0.035,0.068,0.052C16.235,8.388,16.21,8.369,16.185,8.351z M16.166,8.34c0.006,0.004,0.011,0.009,0.017,0.013
	c-0.001-0.001-0.002-0.003-0.003-0.004C16.176,8.345,16.171,8.343,16.166,8.34C16.167,8.34,16.167,8.34,16.166,8.34z M14.42,11
	c-0.026,0.064-0.059,0.117-0.089,0.172c0.003,0.007,0.006,0.014,0.009,0.021c0.073,0.19,0.15,0.381,0.206,0.577
	c0.234,0.823,0.336,1.672,0.409,2.524c0.036,0.409,0.056,0.823,0.085,1.234c0.006,0.081,0.002,0.161,0.005,0.241
	c0.242-0.241,0.482-0.483,0.722-0.725c0.347-0.347,0.705-0.683,1.059-1.023c-0.138-0.22-0.193-0.491-0.125-0.76
	c0.024-0.098,0.046-0.196,0.064-0.296c0.047-0.473,0.041-0.946,0.02-1.422c-0.021-0.498-0.051-0.996-0.108-1.492
	c-0.07-0.461-0.141-0.923-0.295-1.365c-0.049-0.093-0.1-0.183-0.158-0.27c-0.026-0.027-0.052-0.055-0.079-0.081
	c-0.009-0.003-0.019-0.005-0.028-0.008c-0.035,0.009-0.07,0.019-0.104,0.031c-0.049,0.026-0.097,0.054-0.143,0.084
	c-0.071,0.072-0.137,0.147-0.201,0.225c-0.192,0.265-0.371,0.537-0.539,0.818c-0.167,0.277-0.3,0.571-0.437,0.863
	C14.601,10.564,14.509,10.781,14.42,11z M10.213,15.227c0.47,0.772,0.716,1.64,0.894,2.521c0.086,0.425,0.171,0.85,0.256,1.274
	c0.026,0.132,0.053,0.266,0.078,0.399c0.689-0.698,1.378-1.397,2.063-2.1c-0.075-0.064-0.145-0.135-0.196-0.221
	c-0.133-0.227-0.131-0.446-0.09-0.696c0.003-0.02,0.006-0.04,0.009-0.06c0.118-0.999,0.078-2.024-0.047-3.021
	c-0.041-0.271-0.084-0.54-0.149-0.805c-0.067-0.277-0.158-0.545-0.26-0.81c-0.033-0.068-0.068-0.135-0.108-0.199
	c-0.044-0.05-0.09-0.097-0.138-0.143c-0.044-0.028-0.089-0.054-0.136-0.078c-0.055-0.017-0.11-0.031-0.167-0.043
	c-0.012,0-0.024-0.001-0.035-0.001c-0.062,0.015-0.122,0.032-0.182,0.052c-0.149,0.077-0.291,0.166-0.429,0.262
	c-0.089,0.08-0.168,0.168-0.243,0.259c-0.156,0.211-0.301,0.43-0.414,0.668c-0.155,0.407-0.268,0.828-0.384,1.25
	C10.4,14.226,10.3,14.728,10.213,15.227z M8.312,15.57c0.001,0,0.003,0,0.004,0l0,0C8.314,15.57,8.313,15.57,8.312,15.57z
	 M7.43,19.167c0.039,0.431,0.08,0.862,0.131,1.29c0.118,0.766,0.295,1.521,0.474,2.276c0.148-0.145,0.294-0.293,0.444-0.436
	c0.537-0.517,1.095-1.01,1.627-1.53c-0.191-0.16-0.32-0.391-0.324-0.655c-0.003-0.147-0.008-0.293-0.022-0.44
	c-0.079-0.493-0.184-0.984-0.286-1.472c-0.107-0.519-0.237-1.022-0.422-1.516c-0.152-0.328-0.336-0.627-0.546-0.92
	c-0.048-0.056-0.097-0.11-0.15-0.16c-0.025,0.015-0.05,0.031-0.074,0.047C8.134,15.78,8,15.923,7.873,16.076
	c-0.1,0.14-0.191,0.285-0.267,0.438c-0.107,0.296-0.184,0.604-0.241,0.912C7.311,18.005,7.379,18.59,7.43,19.167z M16.185,22.939
	c-0.014-0.013-0.027-0.025-0.041-0.037c-0.134-0.085-0.275-0.157-0.421-0.222c-0.32-0.119-0.641-0.193-0.978-0.253
	c-1.232-0.152-2.497-0.247-3.735-0.12c-0.052,0.009-0.104,0.019-0.156,0.031c-0.018,0.004-0.035,0.003-0.053,0.006
	c-0.259,0.24-0.521,0.478-0.781,0.717c-0.357,0.33-0.694,0.681-1.036,1.026c0.216,0.013,0.432,0.021,0.648,0.037
	c0.557,0.042,1.125,0.112,1.684,0.096c0.575-0.015,1.146-0.071,1.719-0.11c0.44-0.03,0.887-0.029,1.325-0.075
	c0.297-0.047,0.596-0.097,0.885-0.187c0.134-0.061,0.265-0.129,0.388-0.211c0.144-0.124,0.28-0.257,0.404-0.4
	c0.044-0.065,0.083-0.133,0.119-0.204C16.166,23.001,16.176,22.97,16.185,22.939z M16.181,22.909
	c-0.019-0.027-0.041-0.053-0.065-0.077c0.023,0.029,0.045,0.058,0.068,0.086C16.183,22.915,16.182,22.912,16.181,22.909z
	 M19.764,18.979c0.001-0.044,0.001-0.088-0.001-0.132c-0.013-0.023-0.026-0.047-0.04-0.069c-0.026-0.028-0.052-0.056-0.079-0.083
	c-0.031-0.018-0.063-0.035-0.095-0.052c-0.177-0.064-0.354-0.107-0.54-0.14c-0.65-0.068-1.298-0.083-1.951-0.078
	c-0.637,0.004-1.268,0.031-1.899,0.101c-0.208,0.035-0.409,0.085-0.615,0.133c-0.03,0.007-0.059,0.001-0.088,0.004
	c-0.265,0.28-0.529,0.561-0.8,0.838c-0.394,0.4-0.789,0.799-1.185,1.199c0.506,0.001,1.01,0.021,1.516,0.054
	c0.29,0.019,0.581,0.048,0.869,0.079c0.442,0.046,0.896,0.119,1.313,0.275c0.008,0.003,0.016,0.007,0.024,0.01
	c0.07-0.048,0.141-0.094,0.225-0.123c0.628-0.215,1.249-0.449,1.867-0.694c0.339-0.147,0.672-0.305,0.981-0.511
	c0.104-0.09,0.2-0.187,0.291-0.29c0.052-0.083,0.099-0.168,0.141-0.256C19.724,19.157,19.746,19.069,19.764,18.979z M24.271,15.188
	c-0.013-0.047-0.028-0.093-0.044-0.139l0,0c-0.044-0.048-0.09-0.094-0.138-0.138c-0.178-0.117-0.367-0.207-0.562-0.291
	c-0.185-0.074-0.374-0.148-0.568-0.195c-0.193-0.046-0.385-0.082-0.581-0.113c-0.235-0.021-0.476-0.044-0.713-0.029
	c-0.248,0.012-0.491,0.034-0.737,0.062c-0.894,0.139-1.788,0.279-2.677,0.459c-0.003,0.001-0.006,0-0.009,0.001
	c-0.342,0.332-0.682,0.665-1.014,1.006c-0.377,0.385-0.754,0.77-1.132,1.154c0.605-0.025,1.211-0.036,1.817-0.038
	c0.406,0,0.809,0.031,1.213,0.071c0.154,0.016,0.305,0.039,0.454,0.071c0.636-0.144,1.281-0.267,1.912-0.436
	c0.575-0.155,1.129-0.348,1.677-0.579c0.323-0.142,0.647-0.301,0.939-0.497c0.029-0.026,0.057-0.053,0.083-0.081
	c0.023-0.038,0.045-0.077,0.066-0.116c0.004-0.013,0.009-0.027,0.012-0.041C24.272,15.275,24.272,15.231,24.271,15.188z
	 M24.263,15.117c0.002,0.004,0.003,0.008,0.005,0.012c0,0,0,0,0-0.001C24.266,15.125,24.265,15.121,24.263,15.117z M24.28,15.155
	c-0.001-0.004-0.003-0.007-0.005-0.011l0,0.001C24.277,15.148,24.278,15.152,24.28,15.155z M28.061,10.5
	c-0.151-0.101-0.311-0.185-0.473-0.265c-0.142-0.049-0.286-0.08-0.435-0.109c-0.188-0.023-0.378-0.046-0.565-0.044
	c-0.255,0.002-0.506,0.013-0.758,0.031c-0.05,0.03-0.097,0.066-0.148,0.093c-0.219,0.115-0.465,0.134-0.687,0.07
	c-0.263,0.052-0.527,0.093-0.788,0.154c-0.507,0.12-1.008,0.253-1.495,0.441c-0.134,0.077-0.28,0.115-0.433,0.117
	c-0.01,0-0.019-0.003-0.029-0.004c-0.392,0.412-0.785,0.822-1.187,1.222c-0.181,0.178-0.375,0.342-0.563,0.512
	c0.259-0.042,0.519-0.081,0.778-0.097c0.162-0.009,0.322-0.014,0.481-0.014c0.213,0,0.426,0.009,0.641,0.027
	c0.463,0.04,0.925,0.135,1.359,0.296c0.166,0.061,0.336,0.127,0.505,0.197c0.245-0.072,0.49-0.143,0.735-0.217
	c0.305-0.093,0.603-0.21,0.901-0.327c0.025-0.01,0.05-0.021,0.075-0.031c0.253-0.111,0.501-0.227,0.741-0.365
	c0.189-0.106,0.368-0.232,0.544-0.359c0.205-0.171,0.392-0.351,0.563-0.556c0.079-0.121,0.146-0.244,0.207-0.373
	c0.036-0.099,0.068-0.198,0.094-0.299c0-0.011,0-0.023,0-0.034c-0.001-0.004-0.002-0.007-0.003-0.011
	C28.1,10.537,28.081,10.518,28.061,10.5z M28.32,4.199c-0.024-0.127-0.055-0.249-0.097-0.372c-0.027-0.054-0.056-0.107-0.089-0.158
	c-0.002-0.002-0.004-0.004-0.006-0.006c-0.082-0.025-0.165-0.046-0.249-0.063c-0.099-0.006-0.198-0.004-0.297,0.004
	c-0.139,0.025-0.271,0.061-0.402,0.109c-0.506,0.238-0.985,0.548-1.436,0.877c-0.347,0.279-0.674,0.572-0.967,0.909
	c-0.179,0.246-0.339,0.506-0.508,0.759c-0.19,0.288-0.377,0.577-0.559,0.869c-0.045,0.071-0.106,0.127-0.167,0.18
	c-0.013,0.129-0.022,0.258-0.039,0.388c-0.058,0.42-0.126,0.837-0.201,1.255c0.084-0.02,0.169-0.04,0.253-0.06
	c0.521-0.123,1.044-0.256,1.57-0.34c0.006-0.001,0.012-0.002,0.018-0.003c0.163-0.083,0.323-0.171,0.475-0.277
	c0.367-0.292,0.725-0.598,1.076-0.911c0.359-0.32,0.702-0.649,1.012-1.015c0.152-0.224,0.278-0.458,0.394-0.703
	c0.034-0.087,0.067-0.175,0.099-0.264c0.056-0.162,0.086-0.333,0.114-0.502C28.337,4.649,28.338,4.424,28.32,4.199z"/>
</svg>